<mxfile host="Electron" agent="Mozilla/5.0 (Windows NT 10.0; Win64; x64) AppleWebKit/537.36 (KHTML, like Gecko) draw.io/26.2.2 Chrome/134.0.6998.178 Electron/35.1.2 Safari/537.36" border="50" scale="3" compressed="false" locked="false" version="26.2.2">
  <diagram name="Blank" id="YmL12bMKpDGza6XwsDPr">
    <mxGraphModel dx="3556" dy="922" grid="0" gridSize="10" guides="1" tooltips="1" connect="1" arrows="1" fold="1" page="0" pageScale="1" pageWidth="827" pageHeight="1169" background="none" math="1" shadow="0">
      <root>
        <mxCell id="X5NqExCQtvZxIxQ7pmgY-0" />
        <mxCell id="1" parent="X5NqExCQtvZxIxQ7pmgY-0" />
        <mxCell id="sfTP0YP14bFFZo1U4abq-92" value="&lt;p style=&quot;margin:0px;margin-top:6px;text-align:center;&quot;&gt;&lt;b&gt;WorldRender&lt;/b&gt;&lt;/p&gt;&lt;hr size=&quot;1&quot; style=&quot;border-style:solid;&quot;&gt;&lt;p style=&quot;margin:0px;margin-left:8px;&quot;&gt;+ allRender: List&amp;lt;IWorldRender&amp;gt;&lt;br&gt;&lt;/p&gt;" style="align=left;overflow=fill;html=1;dropTarget=0;whiteSpace=wrap;fillColor=#f8cecc;strokeColor=#b85450;" parent="1" vertex="1">
          <mxGeometry x="-906" y="233" width="221" height="90" as="geometry" />
        </mxCell>
        <mxCell id="sfTP0YP14bFFZo1U4abq-93" value="" style="shape=component;jettyWidth=8;jettyHeight=4;" parent="sfTP0YP14bFFZo1U4abq-92" vertex="1">
          <mxGeometry x="1" width="20" height="20" relative="1" as="geometry">
            <mxPoint x="-24" y="4" as="offset" />
          </mxGeometry>
        </mxCell>
        <mxCell id="sfTP0YP14bFFZo1U4abq-138" value="" style="verticalLabelPosition=bottom;verticalAlign=top;html=1;shape=mxgraph.basic.rect;fillColor2=none;strokeWidth=1;size=4.49;indent=5;container=1;fillColor=#dae8fc;strokeColor=#6c8ebf;" parent="1" vertex="1">
          <mxGeometry x="-1634" y="142" width="694" height="388" as="geometry">
            <mxRectangle x="-2208" y="270" width="50" height="44" as="alternateBounds" />
          </mxGeometry>
        </mxCell>
        <mxCell id="sfTP0YP14bFFZo1U4abq-141" value="&lt;p style=&quot;margin:0px;margin-top:6px;text-align:center;&quot;&gt;&lt;b&gt;WroldRenderPass&lt;/b&gt;&lt;/p&gt;&lt;hr size=&quot;1&quot; style=&quot;border-style:solid;&quot;&gt;&lt;p style=&quot;margin:0px;margin-left:8px;&quot;&gt;+ allRender: List&amp;lt;IWorldRender&amp;gt;&lt;br&gt;&lt;/p&gt;" style="align=left;overflow=fill;html=1;dropTarget=0;whiteSpace=wrap;fillColor=#f8cecc;strokeColor=#b85450;shadow=1;" parent="sfTP0YP14bFFZo1U4abq-138" vertex="1">
          <mxGeometry x="58.997603911980434" y="36.98" width="205.9243031784841" height="82" as="geometry" />
        </mxCell>
        <mxCell id="sfTP0YP14bFFZo1U4abq-158" style="edgeStyle=orthogonalEdgeStyle;rounded=0;orthogonalLoop=1;jettySize=auto;html=1;" parent="sfTP0YP14bFFZo1U4abq-138" source="sfTP0YP14bFFZo1U4abq-110" target="sfTP0YP14bFFZo1U4abq-141" edge="1">
          <mxGeometry relative="1" as="geometry" />
        </mxCell>
        <mxCell id="sfTP0YP14bFFZo1U4abq-159" style="edgeStyle=orthogonalEdgeStyle;rounded=0;orthogonalLoop=1;jettySize=auto;html=1;" parent="sfTP0YP14bFFZo1U4abq-138" source="sfTP0YP14bFFZo1U4abq-110" target="sfTP0YP14bFFZo1U4abq-151" edge="1">
          <mxGeometry relative="1" as="geometry" />
        </mxCell>
        <mxCell id="sfTP0YP14bFFZo1U4abq-110" value="&lt;p style=&quot;margin:0px;margin-top:6px;text-align:center;&quot;&gt;&lt;b&gt;WorldRenderFeature&lt;/b&gt;&lt;/p&gt;&lt;hr size=&quot;1&quot; style=&quot;border-style:solid;&quot;&gt;&lt;p style=&quot;margin:0px;margin-left:8px;&quot;&gt;+ renderPasses: List&amp;lt;WorldRenderPass&amp;gt;&lt;br&gt;&lt;/p&gt;" style="align=left;overflow=fill;html=1;dropTarget=0;whiteSpace=wrap;fillColor=#f8cecc;strokeColor=#b85450;container=1;" parent="sfTP0YP14bFFZo1U4abq-138" vertex="1">
          <mxGeometry x="387.4377017114914" y="96.98" width="244.59239608801957" height="85" as="geometry">
            <mxRectangle x="519" y="113.00414634146341" width="264" height="60" as="alternateBounds" />
          </mxGeometry>
        </mxCell>
        <mxCell id="sfTP0YP14bFFZo1U4abq-151" value="&lt;p style=&quot;margin:0px;margin-top:6px;text-align:center;&quot;&gt;&lt;b&gt;WroldRenderPass&lt;/b&gt;&lt;/p&gt;&lt;hr size=&quot;1&quot; style=&quot;border-style:solid;&quot;&gt;&lt;p style=&quot;margin:0px;margin-left:8px;&quot;&gt;+ allRender: List&amp;lt;IWorldRender&amp;gt;&lt;br&gt;&lt;/p&gt;" style="align=left;overflow=fill;html=1;dropTarget=0;whiteSpace=wrap;fillColor=#f8cecc;strokeColor=#b85450;shadow=1;" parent="sfTP0YP14bFFZo1U4abq-138" vertex="1">
          <mxGeometry x="58.997603911980434" y="149.98" width="205.9243031784841" height="82" as="geometry" />
        </mxCell>
        <mxCell id="sfTP0YP14bFFZo1U4abq-161" value="这里的Pass对于不同的&lt;div&gt;&lt;span style=&quot;&quot;&gt;RenderPassEvent&lt;/span&gt;&lt;/div&gt;&lt;div style=&quot;&quot;&gt;通过使用层具体使用了那个来动态创建对应的Pass&lt;/div&gt;" style="shape=note;whiteSpace=wrap;html=1;backgroundOutline=1;darkOpacity=0.05;fillColor=#d5e8d4;strokeColor=#82b366;fillStyle=solid;direction=west;gradientDirection=north;shadow=1;size=20;pointerEvents=1;align=left;" parent="sfTP0YP14bFFZo1U4abq-138" vertex="1">
          <mxGeometry x="552.9599713871934" y="231.9753086419753" width="141.0400286128066" height="156.02469135802468" as="geometry" />
        </mxCell>
        <mxCell id="sfTP0YP14bFFZo1U4abq-167" value="RenderPassEvent" style="text;align=center;verticalAlign=middle;whiteSpace=wrap;rounded=0;fontColor=default;fontSize=6;" parent="sfTP0YP14bFFZo1U4abq-138" vertex="1">
          <mxGeometry x="330.15163814180926" y="118.98" width="53.46699266503667" height="20" as="geometry" />
        </mxCell>
        <mxCell id="sfTP0YP14bFFZo1U4abq-169" value="&lt;h2&gt;&lt;b&gt;URP&lt;/b&gt;&lt;/h2&gt;" style="shape=offPageConnector;whiteSpace=wrap;html=1;fillColor=#1ba1e2;fontColor=#9FEBFF;strokeColor=#006EAF;verticalAlign=top;" parent="sfTP0YP14bFFZo1U4abq-138" vertex="1">
          <mxGeometry x="633" width="61" height="83" as="geometry" />
        </mxCell>
        <mxCell id="sfTP0YP14bFFZo1U4abq-149" style="edgeStyle=orthogonalEdgeStyle;rounded=0;orthogonalLoop=1;jettySize=auto;html=1;entryX=1.004;entryY=0.178;entryDx=0;entryDy=0;entryPerimeter=0;" parent="1" source="sfTP0YP14bFFZo1U4abq-143" target="sfTP0YP14bFFZo1U4abq-92" edge="1">
          <mxGeometry relative="1" as="geometry">
            <mxPoint x="-650.818181818182" y="332.72725053267027" as="targetPoint" />
          </mxGeometry>
        </mxCell>
        <mxCell id="sfTP0YP14bFFZo1U4abq-143" value="" style="verticalLabelPosition=bottom;verticalAlign=top;html=1;shape=mxgraph.basic.rect;fillColor2=none;strokeWidth=1;size=4.49;indent=5;container=1;fillColor=#dae8fc;strokeColor=#6c8ebf;" parent="1" vertex="1">
          <mxGeometry x="-633" y="142" width="440" height="445" as="geometry">
            <mxRectangle x="-2208" y="270" width="50" height="44" as="alternateBounds" />
          </mxGeometry>
        </mxCell>
        <mxCell id="sfTP0YP14bFFZo1U4abq-89" value="&lt;p style=&quot;margin:0px;margin-top:4px;text-align:center;&quot;&gt;IWorldRender&lt;/p&gt;&lt;hr size=&quot;1&quot; style=&quot;border-style:solid;&quot;&gt;&lt;p style=&quot;margin:0px;margin-left:4px;&quot;&gt;+ RenderPassEvent: RenderPassEvent&lt;br&gt;+ Name: string&lt;/p&gt;&lt;hr size=&quot;1&quot; style=&quot;border-style:solid;&quot;&gt;&lt;p style=&quot;margin:0px;margin-left:4px;&quot;&gt;+ Draw(): CommandBuffer&lt;br&gt;&lt;/p&gt;" style="verticalAlign=top;align=left;overflow=fill;html=1;whiteSpace=wrap;fillColor=#fff2cc;strokeColor=#d6b656;container=1;" parent="sfTP0YP14bFFZo1U4abq-143" vertex="1">
          <mxGeometry x="74.91606714628298" y="29.264631817639337" width="280.67146282973624" height="109.2982456140351" as="geometry" />
        </mxCell>
        <mxCell id="sfTP0YP14bFFZo1U4abq-100" value="&lt;h2&gt;&lt;span style=&quot;font-weight: normal;&quot;&gt;&lt;font style=&quot;font-size: 14px;&quot;&gt;CustomRender&lt;/font&gt;&lt;/span&gt;&lt;/h2&gt;" style="verticalAlign=top;align=center;overflow=fill;html=1;whiteSpace=wrap;fillColor=#fff2cc;strokeColor=#d6b656;" parent="sfTP0YP14bFFZo1U4abq-143" vertex="1">
          <mxGeometry x="102.87769784172663" y="184.65986394557825" width="224.74820143884895" height="59.73696145124717" as="geometry" />
        </mxCell>
        <mxCell id="sfTP0YP14bFFZo1U4abq-125" value="Extends" style="endArrow=block;endSize=16;endFill=0;html=1;rounded=0;exitX=0.5;exitY=0;exitDx=0;exitDy=0;entryX=0.5;entryY=1;entryDx=0;entryDy=0;" parent="sfTP0YP14bFFZo1U4abq-143" source="sfTP0YP14bFFZo1U4abq-100" target="sfTP0YP14bFFZo1U4abq-89" edge="1">
          <mxGeometry width="160" relative="1" as="geometry">
            <mxPoint x="-394.62829736211035" y="228.7456140350877" as="sourcePoint" />
            <mxPoint x="-225.8033573141487" y="228.7456140350877" as="targetPoint" />
          </mxGeometry>
        </mxCell>
        <mxCell id="sfTP0YP14bFFZo1U4abq-148" value="使用层继承IWorldRender&lt;div&gt;后通知WorldRender参与URP的绘制&lt;/div&gt;" style="shape=note;whiteSpace=wrap;html=1;backgroundOutline=1;darkOpacity=0.05;fillColor=#d5e8d4;strokeColor=#82b366;fillStyle=solid;direction=west;gradientDirection=north;shadow=1;size=20;pointerEvents=1;align=left;" parent="sfTP0YP14bFFZo1U4abq-143" vertex="1">
          <mxGeometry x="292.2781774580336" y="288.9753086419753" width="147.72182254196645" height="156.02469135802468" as="geometry" />
        </mxCell>
        <mxCell id="sfTP0YP14bFFZo1U4abq-168" value="&lt;h2&gt;&lt;b&gt;使用者&lt;/b&gt;&lt;/h2&gt;" style="shape=offPageConnector;whiteSpace=wrap;html=1;fillColor=#1ba1e2;fontColor=#9FEBFF;strokeColor=#006EAF;verticalAlign=top;" parent="sfTP0YP14bFFZo1U4abq-143" vertex="1">
          <mxGeometry x="379" width="61" height="83" as="geometry" />
        </mxCell>
        <mxCell id="sfTP0YP14bFFZo1U4abq-160" style="edgeStyle=orthogonalEdgeStyle;rounded=0;orthogonalLoop=1;jettySize=auto;html=1;entryX=1.001;entryY=0.35;entryDx=0;entryDy=0;entryPerimeter=0;" parent="1" source="sfTP0YP14bFFZo1U4abq-92" target="sfTP0YP14bFFZo1U4abq-138" edge="1">
          <mxGeometry relative="1" as="geometry" />
        </mxCell>
      </root>
    </mxGraphModel>
  </diagram>
</mxfile>
